# xmcd
# 
# Track frame offsets:
#     150
#     15757
#     42132
#     57832
# 
# Disc length: 1162
# 
# Revision: 2
# Processed by: cddbd v1.5.2PL0 Copyright (c) Steve Scherf et al.
# Submitted via: fre:ac v1.0.31
# 
DISCID=20048804
DTITLE=EUROGROOVE feat. FINAL TOUCH - MOVE YOUR BODY BABY
DYEAR=1994
DGENRE=
TTITLE0=MOVE YOUR BODY BABY [Original Single Mix]
TTITLE1=MOVE YOUR BODY BABY [Extended 12”Mix]
TTITLE2=MOVE YOUR BODY BABY [Instrumental]
TTITLE3=MOVE YOUR BODY BABY [Club Groove Mix]
EXTD=
EXTT0=
EXTT1=
EXTT2=
EXTT3=
PLAYORDER=
